<?xml version="1.0" encoding="UTF-8" standalone="no"?>
<!-- Created with Inkscape (http://www.inkscape.org/) -->

<svg
   xmlns:dc="http://purl.org/dc/elements/1.1/"
   xmlns:cc="http://creativecommons.org/ns#"
   xmlns:rdf="http://www.w3.org/1999/02/22-rdf-syntax-ns#"
   xmlns:svg="http://www.w3.org/2000/svg"
   xmlns="http://www.w3.org/2000/svg"
   xmlns:sodipodi="http://sodipodi.sourceforge.net/DTD/sodipodi-0.dtd"
   xmlns:inkscape="http://www.inkscape.org/namespaces/inkscape"
   width="750"
   height="749.99994"
   viewBox="0 0 750.00002 749.99996"
   id="svg2"
   version="1.1"
   inkscape:version="0.91 r13725"
   sodipodi:docname="slimcoin.svg"
   inkscape:export-filename="/home/gjh/minkiz/fabshop/SlimCoinWork/slimcoin-master/src/qt/res/src/slimcoin.png"
   inkscape:export-xdpi="90"
   inkscape:export-ydpi="90">
  <defs
     id="defs4" />
  <sodipodi:namedview
     id="base"
     pagecolor="#ffffff"
     bordercolor="#666666"
     borderopacity="1.0"
     inkscape:pageopacity="0.0"
     inkscape:pageshadow="2"
     inkscape:zoom="0.35"
     inkscape:cx="356.53229"
     inkscape:cy="362.35085"
     inkscape:document-units="px"
     inkscape:current-layer="layer4"
     showgrid="false"
     units="px"
     inkscape:window-width="1029"
     inkscape:window-height="604"
     inkscape:window-x="60"
     inkscape:window-y="55"
     inkscape:window-maximized="0"
     fit-margin-top="0"
     fit-margin-left="0"
     fit-margin-right="0"
     fit-margin-bottom="0" />
  <metadata
     id="metadata7">
    <rdf:RDF>
      <cc:Work
         rdf:about="">
        <dc:format>image/svg+xml</dc:format>
        <dc:type
           rdf:resource="http://purl.org/dc/dcmitype/StillImage" />
        <dc:title></dc:title>
      </cc:Work>
    </rdf:RDF>
  </metadata>
  <g
     inkscape:groupmode="layer"
     id="layer4"
     inkscape:label="Whiteout"
     sodipodi:insensitive="true">
    <circle
       style="opacity:1;fill:#ffffff;fill-opacity:1;stroke:#ffffff;stroke-width:1;stroke-miterlimit:4;stroke-dasharray:none;stroke-dashoffset:0;stroke-opacity:1"
       id="path4397"
       cx="373.14285"
       cy="375.14279"
       r="360" />
  </g>
  <g
     inkscape:label="Slimcoin"
     inkscape:groupmode="layer"
     id="layer1"
     transform="translate(0,-302.36228)"
     sodipodi:insensitive="true">
    <path
       style="fill:#fecb00;fill-opacity:1"
       d="M 353.07465,1051.8562 C 259.26777,1044.3083 178.13631,1008.1275 113.71008,945.11088 87.579803,919.5523 70.85757,898.36273 52.209587,867.18051 28.676537,827.82973 10.845988,777.32194 4.7118355,732.63575 3.7004033,725.26764 2.2231015,716.13913 1.4289482,712.35018 c -1.90526428,-9.09014 -1.90526428,-61.05254 0,-70.14268 0.7941533,-3.78896 2.2714551,-12.91746 3.2828873,-20.28557 C 12.317748,566.51422 36.309181,506.91344 69.867026,460.0599 95.441854,424.35228 129.9141,390.78487 165.76961,366.67459 c 46.0797,-30.9853 101.31823,-52.37818 153.85894,-59.58675 7.37004,-1.01117 16.50094,-2.48808 20.2909,-3.28203 4.02312,-0.84279 18.62228,-1.44353 35.08054,-1.44353 16.45825,0 31.05741,0.60074 35.08054,1.44353 3.78995,0.79395 12.92085,2.27086 20.2909,3.28203 52.54068,7.20857 107.77921,28.60145 153.8589,59.58675 35.85552,24.11028 70.32777,57.67769 95.90259,93.38531 33.55784,46.85354 57.54932,106.45432 65.15519,161.86203 1.01142,7.36811 2.48871,16.49661 3.28293,20.28557 1.90528,9.09014 1.90528,61.05254 0,70.14268 -0.79422,3.78895 -2.27151,12.91746 -3.28293,20.28557 -7.60587,55.4077 -31.59735,115.00849 -65.15519,161.86203 -25.57482,35.70762 -60.04707,69.27502 -95.90259,93.3853 -46.07969,30.98532 -101.31822,52.37822 -153.8589,59.58672 -7.37005,1.0112 -16.21905,2.3758 -19.66446,3.0323 -8.57096,1.6334 -43.85694,2.4624 -57.63232,1.3541 z m 48.86218,-124.02323 c 58.22162,-9.60593 104.30144,-39.87389 125.92148,-82.71273 18.6848,-37.02301 19.73621,-90.14817 2.49322,-125.97839 -12.48577,-25.94491 -33.13257,-43.42544 -74.85423,-63.37488 -13.31576,-6.36702 -17.85349,-9.11699 -17.85349,-10.81969 0,-1.2556 1.95212,-12.92183 4.33803,-25.92494 2.96097,-16.13706 3.93953,-24.12207 3.08265,-25.15428 -1.65764,-1.99679 -16.38442,-4.57503 -17.83707,-3.12277 -1.20089,1.20058 -2.7745,8.35404 -7.11871,32.36086 -1.52708,8.43903 -3.26406,15.34371 -3.85992,15.34371 -1.6085,0 -51.71291,-21.34989 -53.01717,-22.59104 -0.65196,-0.62042 0.76271,-11.39303 3.38972,-25.81265 3.05784,-16.78446 4.10746,-25.2311 3.2619,-26.24967 -0.6857,-0.82601 -4.74815,-2.12206 -9.02767,-2.8801 -6.53414,-1.15742 -8.0003,-1.08191 -9.15001,0.47122 -0.75301,1.01721 -2.96937,10.87234 -4.92527,21.90029 -1.95589,11.02795 -3.96433,20.71106 -4.46319,21.51802 -1.30564,2.112 -15.22884,-8.14161 -24.38226,-17.95608 -12.75784,-13.6792 -18.12674,-26.97734 -18.08569,-44.79619 0.0756,-32.82028 17.30844,-58.24842 50.56629,-74.61375 18.52776,-9.11704 27.66679,-11.02149 53.40071,-11.12806 27.49113,-0.11386 39.85596,2.81604 59.51163,14.10146 23.71041,13.61348 52.02792,57.04687 59.49587,91.25486 2.75121,12.60255 5.28032,40.47573 4.89774,53.97905 -0.14242,5.02552 0.25138,9.61376 0.87501,10.19608 0.62363,0.58232 6.72364,1.99402 13.55572,3.13713 10.19,1.70491 12.71409,1.78586 14.04826,0.45056 0.89756,-0.89836 9.79609,-43.93637 19.85819,-96.04456 13.937,-72.17554 17.89609,-94.82106 16.80699,-96.13304 -1.01443,-1.22198 -4.69027,-1.71627 -12.76331,-1.71627 l -11.33843,0 -8.29173,8.45469 c -4.56037,4.65008 -13.4545,13.9829 -19.76458,20.73959 l -11.47284,12.28489 -7.89593,-6.15381 c -10.91366,-8.50573 -35.09327,-24.20589 -44.64089,-28.98598 -11.14059,-5.57761 -31.29451,-12.10574 -45.31842,-14.67925 -17.85979,-3.27742 -50.31956,-2.93231 -67.65533,0.71933 -37.48124,7.8951 -67.05424,24.85071 -91.86669,52.67151 -16.89272,18.94085 -27.11771,39.49385 -32.96107,66.25422 -2.92911,13.41421 -2.90971,44.86607 0.0361,58.41503 4.51309,20.75788 14.21426,38.81371 28.94665,53.87554 12.25811,12.53223 21.49688,18.84268 41.45677,28.31665 8.44431,4.0081 15.65663,7.77812 16.02736,8.37781 0.37074,0.59971 -1.53888,13.12416 -4.24357,27.83213 -3.3688,18.31933 -4.52115,27.21937 -3.65879,28.25816 0.69235,0.83403 4.76024,2.13663 9.03976,2.89467 6.48699,1.14906 8.00452,1.07628 9.12552,-0.43773 0.73954,-0.9988 3.23018,-12.272 5.53479,-25.05157 2.89875,-16.07433 4.69189,-23.23556 5.81805,-23.23556 0.89533,0 8.55298,2.99949 17.01699,6.66552 8.46403,3.66604 20.04043,8.5204 25.72536,10.78744 8.57518,3.41965 10.33623,4.59253 10.33623,6.88408 0,1.51917 -1.95212,13.40106 -4.33803,26.40417 -2.96097,16.13706 -3.93953,24.12207 -3.08265,25.15428 0.69047,0.83174 4.75681,2.13247 9.03633,2.89052 6.44408,1.14146 8.00824,1.07131 9.10399,-0.4083 0.72768,-0.98259 3.15274,-11.81501 5.38899,-24.07201 2.23627,-12.25701 4.35503,-22.5745 4.70836,-22.92774 0.35334,-0.35324 7.1432,2.65397 15.08857,6.68272 30.27735,15.35227 41.58801,34.6082 40.18067,68.40588 -1.26219,30.3116 -13.30602,51.69347 -38.97366,69.19116 -22.45674,15.30883 -49.90672,21.98361 -84.72188,20.6011 -26.95952,-1.07054 -46.2149,-6.54714 -68.19517,-19.39601 -13.71263,-8.0159 -33.09434,-27.4014 -40.97015,-40.97819 -14.19612,-24.47209 -19.67221,-45.83518 -20.75752,-80.97815 -0.39707,-12.85778 -1.09252,-23.9772 -1.54542,-24.70983 -0.86885,-1.40547 -18.39683,-5.1451 -24.11721,-5.14548 -2.12788,-1.4e-4 -3.59014,0.804 -3.98556,2.19175 -2.69021,9.44122 -36.12592,188.24706 -35.50411,189.86707 0.6558,1.7085 2.63602,2.08588 10.94534,2.08588 5.57959,0 11.16163,-0.54411 12.40455,-1.20912 1.24293,-0.66502 10.32644,-9.82427 20.1856,-20.3539 9.85914,-10.52964 18.668,-19.32634 19.57522,-19.54824 0.90722,-0.2219 4.04918,1.54495 6.98211,3.92634 27.20034,22.08525 68.00217,37.99132 108.06849,42.12914 16.27258,1.68053 48.81626,0.50697 66.40245,-2.39456 z"
       id="path3559"
       inkscape:connector-curvature="0"
       inkscape:export-xdpi="90"
       inkscape:export-ydpi="90" />
  </g>
</svg>
