<svg width="512" height="512" xmlns="http://www.w3.org/2000/svg" preserveAspectRatio="xMidYMid meet">
 <metadata>Created by potrace 1.15, written by Peter Selinger 2001-2017</metadata>

 <g>
  <title>background</title>
  <rect fill="none" id="canvas_background" height="402" width="582" y="-1" x="-1"/>
 </g>
 <g>
  <title>Layer 1</title>
  <rect id="svg_5" height="550" width="534" y="-23" x="-21" stroke-opacity="null" stroke-width="null" stroke="null" fill="#293144"/>
  <g id="svg_1" fill="#000000" transform="translate(0, 512) scale(0.1, -0.1)">
   <path fill="#ffffff" id="svg_2" d="m3384.015137,4374.510254c-104.232422,-17.795898 -199.990723,-58.472168 -290.665039,-122.875977c-62.708496,-44.913086 -508.451172,-493.197754 -545.737793,-549.12793c-39.828613,-58.47168 -74.572754,-136.43457 -94.911133,-213.549561c-25.422363,-94.063477 -25.422363,-244.056641 0,-338.120117c10.168945,-37.286865 19.490723,-69.48877 22.033203,-72.030762c2.541992,-2.54248 198.295898,188.974609 434.726074,424.557129c300.833984,299.986572 441.505371,434.72583 467.775391,448.284912c56.777344,27.964844 142.366699,31.354492 207.617676,7.626465c45.760742,-16.948242 66.098633,-33.896484 191.516602,-160.162109c126.266602,-125.417969 143.213867,-145.756104 160.163086,-191.516602c23.727539,-65.251465 20.337891,-150.84082 -7.626953,-207.61792c-13.558594,-26.27002 -148.298828,-166.94165 -448.285156,-467.775391c-235.58252,-236.430176 -427.099121,-432.183838 -424.557129,-434.726318c2.54248,-2.542236 34.744141,-11.86377 72.030762,-22.032959c94.063477,-25.422607 244.056641,-25.422607 338.120117,0c77.115234,20.338379 155.077637,55.082275 213.549805,94.911133c55.929688,37.286377 504.214844,483.029053 549.12793,545.738037c166.09375,232.192871 173.720703,528.789795 19.490234,768.609375c-40.675781,64.403809 -286.427734,315.239746 -360.152344,367.780273c-141.519531,102.537598 -338.121094,149.992676 -504.215332,122.02832z"/>
   <path fill="#ffffff" id="svg_3" d="m3004.371094,3381.334717c-43.218262,-16.101074 -90.67334,-61.01416 -604.209961,-573.703125c-628.784668,-627.090332 -611.836426,-606.752197 -610.989258,-724.543457c0,-107.622314 55.08252,-195.75415 154.230469,-244.056885c46.60791,-22.880371 65.251465,-27.117432 116.09668,-27.117432c119.48584,0 98.300293,-17.795654 725.390625,610.989258c526.247559,527.942383 557.602051,560.144287 574.550293,606.752441c82.199707,223.71875 -131.349609,435.573486 -355.068848,351.679199z"/>
   <path fill="#ffffff" id="svg_4" d="m1781.54541,2747.464844c-105.927246,-12.711182 -213.549805,-53.387451 -302.528809,-112.706787c-46.60791,-31.354492 -487.266113,-466.927979 -537.263672,-531.332031c-48.303223,-61.013916 -94.063477,-153.382813 -116.944336,-234.735107c-27.117188,-94.910889 -27.117188,-258.462891 0,-353.373901c19.490723,-66.946045 62.708984,-162.70459 96.605957,-211.854858c26.27002,-38.981323 301.681152,-315.23999 345.74707,-348.289307c55.929688,-41.523682 149.145996,-85.589355 225.413574,-107.622314c54.234863,-15.25354 88.131836,-18.643311 177.11084,-18.643311c132.197266,0 203.380371,16.948486 321.171875,77.115234c73.725586,38.133911 88.131348,50.845215 326.256348,285.580322c254.225586,252.531128 304.223633,310.155518 348.289551,404.219116c71.183105,153.382935 82.199707,362.695435 25.422363,510.994019l-9.321289,25.422363l-429.64209,-428.794189c-289.817383,-288.969971 -442.352539,-435.573486 -467.774902,-449.132202c-31.35498,-16.101074 -50.845703,-19.490723 -114.401855,-19.490723c-108.469727,0 -138.129395,17.795776 -288.970215,168.636475c-150.84082,150.840698 -168.63623,180.500366 -168.63623,288.970093c0,63.556396 3.389648,83.047119 19.490723,114.401611c13.558594,25.422607 160.162109,177.958008 449.131836,467.775391l428.794434,429.641602l-25.422852,9.321533c-78.80957,30.507324 -211.007324,44.913574 -302.52832,33.896973z"/>
  </g>
 </g>
</svg>