<svg width="560" height="560" xmlns="http://www.w3.org/2000/svg" preserveAspectRatio="xMidYMid meet">
 <metadata>Created by potrace 1.15, written by Peter Selinger 2001-2017</metadata>

 <g>
  <title>background</title>
  <rect fill="none" id="canvas_background" height="402" width="582" y="-1" x="-1"/>
 </g>
 <g>
  <title>Layer 1</title>
  <rect id="svg_3" height="661.429581" width="675.715317" y="-45.714798" x="-76.429123" stroke-opacity="null" stroke-width="null" stroke="null" fill="#000000"/>
  <g id="svg_1" fill="#000000" transform="translate(0, 560) scale(0.1, -0.1)">
   <path fill="#ffffff" id="svg_2" d="m2571,4839c-733,-82 -1361,-525 -1676,-1182c-488,-1019 -73,-2233 941,-2749c60,-31 154,-72 209,-93c116,-43 165,-43 202,0c22,25 23,33 23,242l0,215l-27,-6c-16,-4 -86,-9 -158,-12c-152,-7 -232,7 -328,59c-95,50 -147,110 -211,239c-61,126 -113,194 -190,251c-111,83 -131,118 -78,138c107,42 291,-57 387,-207c106,-165 229,-232 404,-221c108,7 211,40 211,68c0,39 43,145 81,201c45,66 57,56 -99,83c-497,85 -752,358 -803,858c-26,260 24,468 158,647l48,65l-17,65c-33,127 -16,355 34,465c12,27 14,27 78,22c119,-10 299,-82 454,-181l52,-33l110,23c276,58 562,58 838,0l110,-23l52,33c156,100 335,171 456,181l66,6l28,-84c37,-114 45,-299 17,-405l-19,-71l49,-63c164,-218 207,-519 122,-856c-95,-376 -368,-595 -817,-656c-49,-7 -88,-16 -88,-19c0,-4 11,-20 24,-36c39,-47 74,-125 90,-206c13,-61 16,-145 16,-416c0,-338 0,-340 23,-366c37,-43 86,-43 202,0c1143,427 1676,1745 1150,2842c-296,618 -865,1045 -1550,1164c-139,24 -440,33 -574,18z"/>
  </g>
 </g>
</svg>