<svg width="700" height="700" version="1.0" xmlns="http://www.w3.org/2000/svg" xmlns:cc="http://creativecommons.org/ns#" xmlns:dc="http://purl.org/dc/elements/1.1/" xmlns:rdf="http://www.w3.org/1999/02/22-rdf-syntax-ns#" style=""><rect id="backgroundrect" width="100%" height="100%" x="0" y="0" fill="none" stroke="none"/>
<metadata>Created by potrace 1.15, written by Peter Selinger 2001-2017
<rdf:RDF>
<cc:Work rdf:about="">
<dc:format>image/svg+xml</dc:format>
<dc:type rdf:resource="http://purl.org/dc/dcmitype/StillImage"/>
<dc:title/>
</cc:Work>
</rdf:RDF>
</metadata>






<g class="currentLayer" style=""><title>Layer 1</title><rect y="-1.2821999788284302" width="702.9099731445312" height="704.5399780273438" fill="#fff" id="svg_1"/><g transform="translate(0, 700) scale(0.1, -0.1)" id="svg_2" class="selected" opacity="1" fill-opacity="1" fill="#777777">
<path d="m510 4625v-1785h1220 1220v-1125-1125h1780 1780v1785 1785h-1220-1220v1125 1125h-1780-1780v-1785zm1568 933 3-128h94 94l3 128 3 127 73 3 72 3v-129-129l93-12c166-23 267-88 332-216 39-77 40-80 40-190 0-107-1-114-34-179-32-62-127-166-152-166-23 0-5-17 41-38 80-37 150-114 184-202 24-62 28-90 28-165 0-78-4-101-32-174-27-70-43-94-95-146-87-87-160-121-297-137l-108-12v-129-128l-72 3-73 3-3 128-3 127h-94-94l-3-127-3-128-134-6-6 256-165 3c-116 2-166 6-172 15-11 18-10 155 2 178 9 16 22 19 76 19 57 0 68 3 89 26 14 15 27 41 30 58s5 264 3 548l-3 517-29 30c-27 28-36 31-93 31-51 0-64 3-73 19-12 23-13 160-2 178 6 9 56 13 172 15l165 3 6 256 134-6 3-127zm2875-2394c73-19 123-43 202-98 33-24 65-46 71-49 7-4 41 23 80 63 45 47 75 70 91 70 26 0 27 14-12-185-13-66-26-131-28-145-3-14-12-59-20-100-9-41-19-94-22-118-6-39-9-43-33-40-26 3-27 6-34 87-9 115-38 202-97 293-88 136-181 183-349 176-82-3-106-9-155-33-70-35-133-95-158-150-26-56-25-163 1-214 19-37 113-131 132-131 13 0 38 64 38 97 0 15 4 35 10 43 18 29 23-1 11-75-7-41-10-79-7-83 9-15 186-84 199-79 8 3 19 37 27 76 8 45 18 71 26 71 14 0 13-18-8-113-12-56-6-67 48-86 20-7 60-28 89-45 155-93 201-180 193-368-3-90-7-111-35-168-56-119-181-214-333-256-90-25-300-25-389 0-71 19-151 58-221 106l-45 31-66-71c-42-45-73-70-87-70-12 0-22 5-22 12 0 14 16 99 42 228 10 52 28 142 38 200 28 149 27 148 56 142 21-4 24-10 24-46 1-150 61-309 146-385 211-189 581-151 695 71 31 59 38 173 15 232-19 49-74 104-135 136-61 31-67 28-81-42-16-83-18-88-30-88-11 0-7 62 10 126 4 17 5 36 1 41-3 6-50 29-103 51-71 29-99 37-106 29-5-7-15-45-22-84-7-40-18-73-23-73-9 0-7 26 9 141l6 47-73 37c-116 58-175 126-205 237-52 197 52 413 246 514 102 52 274 69 393 38z" id="svg_3" opacity="1" fill="#777777"/>
<path d="m2080 4986v-226h185c201 0 217 3 266 57 104 112 78 308-49 366-41 18-71 22-224 25l-178 4v-226z" id="svg_4" opacity="1" fill="#777777"/>
<path d="m2092 4532c-9-6-12-65-10-258l3-249 170-3c197-3 257 7 313 50 107 82 122 296 29 390-63 62-101 72-307 76-102 1-191-1-198-6z" id="svg_5" opacity="1" fill="#777777"/>
<path d="m4635 6131c-143-140-260-260-260-267 0-12 507-514 519-514 3 0 6 77 6 170v170h88c127 0 207-16 291-56 131-64 231-191 260-332 7-33 11-194 11-427v-375h182 181l-7 413c-6 360-9 423-26 494-67 280-270 499-550 594-89 30-106 33-262 37l-168 4-2 172-3 171-260-254z" id="svg_6" opacity="1" fill="#777777"/>
<path d="m1113 2088c4-378 6-420 26-495 72-285 272-500 551-594 89-30 106-33 262-37l168-4 2-172 3-171 260 254c143 140 261 259 263 265 2 10-510 516-522 516-3 0-6-76-6-170v-170h-77c-43 0-112 5-153 10-198 26-368 183-409 378-7 33-11 194-11 427v375h-181-181l5-412z" id="svg_7" opacity="1" fill="#777777"/>
</g><rect transform="matrix(.98953 .14436 -.14436 .98953 0 0)" x="521.47998046875" y="353.57000732421875" width="5.910200119018555" height="34.74100112915039" fill="#fff" fill-rule="evenodd" id="svg_8"/><rect transform="matrix(.98953 .14436 -.14436 .98953 0 0)" x="520.52001953125" y="379.4200134277344" width="5.910200119018555" height="34.74100112915039" fill="#fff" fill-rule="evenodd" id="svg_9"/><rect transform="matrix(.98953 .14436 -.14436 .98953 0 0)" x="547.510009765625" y="360.010009765625" width="5.910200119018555" height="34.74100112915039" fill="#fff" fill-rule="evenodd" id="svg_10"/><rect transform="matrix(.98953 .14436 -.14436 .98953 0 0)" x="546.5499877929688" y="385.8599853515625" width="5.910200119018555" height="34.74100112915039" fill="#fff" fill-rule="evenodd" id="svg_11"/></g></svg>