<svg version="1.0" xmlns="http://www.w3.org/2000/svg" width="256.000000" height="256.000000" preserveAspectRatio="xMidYMid meet"><rect id="backgroundrect" width="100%" height="100%" x="0" y="0" fill="none" stroke="none"/>
<metadata>
Created by potrace 1.15, written by Peter Selinger 2001-2017
</metadata>

<g class="currentLayer" style=""><title>Layer 1</title><g transform="translate(0, 256) scale(0.1, -0.1)" fill="#f86100" stroke="none" id="svg_1" class="selected" fill-opacity="1">
<path d="M0 1280 l0 -1280 1280 0 1280 0 0 1280 0 1280 -1280 0 -1280 0 0 -1280z m1737 859 c34 -13 80 -55 99 -91 18 -35 18 -111 -1 -147 -8 -16 -28 -40 -45 -55 -113 -95 -280 -15 -280 134 0 114 122 199 227 159z m-310 -167 c13 -7 23 -26 26 -49 10 -57 59 -118 122 -149 47 -23 64 -26 117 -21 35 3 72 8 83 11 16 5 29 -4 62 -47 74 -96 122 -209 147 -344 l6 -33 -154 0 -154 0 -7 38 c-11 58 -63 147 -115 196 -101 94 -232 132 -362 104 -40 -9 -74 -13 -76 -9 -1 3 -36 60 -77 126 l-74 120 47 22 c79 36 176 53 288 49 56 -2 110 -9 121 -14z m-471 -243 l74 -122 -44 -47 c-88 -94 -130 -225 -108 -341 15 -81 52 -158 101 -212 23 -24 41 -47 41 -51 0 -18 -144 -246 -155 -246 -17 0 -127 109 -165 164 -17 26 -47 81 -66 122 l-35 75 35 33 c101 95 101 258 -1 353 l-36 34 46 92 c25 51 66 116 90 145 46 55 136 136 144 128 3 -2 38 -59 79 -127z m-407 -293 c70 -37 111 -116 97 -191 -8 -40 -55 -99 -97 -121 -90 -46 -211 13 -239 116 -20 74 25 165 95 196 40 18 109 17 144 0z m1435 -243 c-21 -127 -61 -228 -123 -315 -61 -86 -52 -81 -110 -62 -89 29 -186 2 -248 -70 -29 -32 -43 -64 -57 -128 -4 -19 -15 -30 -34 -35 -42 -12 -242 -8 -292 6 -62 17 -150 52 -150 60 1 3 34 60 74 126 55 90 78 120 92 118 10 0 47 -7 81 -14 160 -32 341 58 421 209 17 32 34 77 38 100 l7 42 154 0 154 0 -7 -37z m-224 -448 c121 -61 119 -245 -3 -304 -77 -37 -147 -23 -205 43 -38 43 -46 72 -39 132 13 116 140 183 247 129z" id="svg_2" fill="#f86100" fill-opacity="1"/>
</g></g></svg>