<?xml version="1.0" encoding="UTF-8"?>
<svg viewBox="0 0 512 512" xmlns="http://www.w3.org/2000/svg">
<g>
<title>background</title>
<rect x="-1" y="-1" width="582" height="402" fill="none"/>
</g>
<g>
<title>Layer 1</title>
<rect x="-16.5" y="-12" width="546" height="540" fill="#fff" stroke="null" stroke-opacity="null" stroke-width="null"/>
<path d="m278.84 143.95c-6.219 1.845-15.01 3.27-26.251 4.28 0.506-25.072 7.044-46.698 19.712-64.848 12.435-18.033 33.441-30.493 63.054-37.377 0.18399 0.482 0.422 1.447 0.64999 2.787 0.23001 1.34 0.45902 2.259 0.64502 2.765 0 0.666 0.044983 1.517 0.13699 2.527 0.046997 1.019 0.09198 1.846 0.09198 2.542 0 10.262-2.443 21.688-7.32 34.308-5.023 12.62-12.857 24.229-23.449 34.828-9.075 9.067-18.196 15.147-27.27 18.188zm113.08 176.92c-11.602-16.633-17.406-35.426-17.406-56.286 0-19.022 5.438-36.437 16.396-52.234 5.896-8.615 15.477-18.518 28.785-29.797-8.752-10.782-17.498-19.16-26.25-25.241-15.846-10.92-33.764-16.403-53.797-16.403-11.932 0-26.49 2.856-43.621 8.569-16.486 5.759-28.557 8.585-36.113 8.585-5.713 0-17.316-2.504-34.822-7.566-17.682-5.054-32.561-7.559-44.676-7.559-28.971 0-52.832 12.107-71.717 36.337-19.022 24.552-28.511 56.057-28.511 94.377 0 40.771 12.391 83.05 37.126 126.99 25.058 43.574 50.39 65.361 75.952 65.361 8.569 0 19.712-2.857 33.305-8.569 13.631-5.567 25.607-8.34 35.876-8.34 10.922 0 23.633 2.695 38.092 8.063 15.293 5.392 27.086 8.08 35.334 8.08 21.557 0 43.152-16.48 64.893-49.463 14.098-21.029 24.459-42.05 31.045-63.079-15.018-4.563-28.28-15.155-39.891-31.826z"/>
</g>
</svg>
