<svg version="1.0" xmlns="http://www.w3.org/2000/svg" width="256.000000" height="256.000000" preserveAspectRatio="xMidYMid meet" style=""><rect id="backgroundrect" width="100%" height="100%" x="0" y="0" fill="none" stroke="none"/>
<metadata>
Created by potrace 1.15, written by Peter Selinger 2001-2017
</metadata>

<g class="currentLayer" style=""><title>Layer 1</title><g transform="translate(0, 256) scale(0.1, -0.1)" fill="#c20037" stroke="none" id="svg_1" class="selected" fill-opacity="1">
<path d="M0 1280 l0 -1280 1280 0 1280 0 0 1280 0 1280 -1280 0 -1280 0 0 -1280z m1039 848 c93 -12 163 -48 204 -105 17 -24 33 -43 37 -43 4 0 20 19 37 43 17 23 52 54 80 69 80 43 273 60 330 29 12 -6 32 -11 45 -11 13 0 33 -7 44 -15 10 -8 26 -15 35 -15 26 0 38 -22 40 -75 2 -55 -7 -105 -22 -119 -5 -6 -9 -18 -9 -28 0 -10 -12 -37 -26 -59 -29 -46 -130 -149 -146 -149 -6 0 8 -13 30 -30 60 -43 92 -97 105 -178 11 -60 18 -75 59 -121 91 -101 101 -214 29 -331 -16 -25 -41 -88 -56 -141 -43 -151 -81 -190 -306 -313 -31 -17 -76 -45 -100 -62 -58 -41 -100 -54 -169 -54 -69 0 -111 13 -169 54 -24 17 -69 45 -100 62 -225 123 -263 162 -306 313 -15 53 -40 116 -56 141 -72 119 -62 231 31 333 36 40 50 63 50 84 0 80 45 165 113 214 22 16 35 29 28 29 -17 0 -115 101 -146 149 -14 23 -25 49 -25 59 0 10 -4 22 -9 27 -15 15 -24 65 -22 120 2 53 14 75 40 75 9 0 25 7 35 15 11 8 29 15 40 15 12 0 39 7 61 15 45 16 87 17 194 3z" id="svg_2" fill="#c20037"/>
<path d="M916 2076 c5 -14 2 -15 -21 -6 -34 13 -35 13 -35 -3 0 -9 -12 -11 -41 -9 -29 3 -40 1 -35 -7 5 -7 -5 -11 -28 -11 -41 0 -40 0 -24 -35 10 -21 9 -28 -2 -35 -11 -7 -9 -13 11 -29 20 -17 21 -20 7 -21 -24 0 -23 -13 2 -35 14 -12 17 -21 9 -25 -7 -5 0 -15 17 -29 20 -16 25 -24 16 -30 -9 -5 -1 -14 22 -26 24 -13 31 -22 23 -27 -8 -5 -1 -11 21 -19 17 -6 32 -17 32 -25 0 -9 12 -14 36 -14 29 0 35 -3 30 -16 -5 -13 1 -14 42 -8 26 4 58 11 72 16 33 12 80 58 80 78 0 29 -105 112 -227 180 -24 13 -41 25 -39 28 8 7 177 -77 237 -118 32 -22 63 -40 68 -40 6 0 19 10 31 22 27 29 26 78 -4 136 -27 52 -56 85 -56 61 0 -7 -13 -1 -29 15 -20 20 -30 24 -33 14 -4 -10 -9 -9 -25 4 -15 14 -22 15 -31 6 -9 -9 -16 -8 -30 5 -21 19 -37 23 -26 5 5 -7 1 -9 -12 -5 -65 20 -64 20 -58 3z" id="svg_3" fill="#c20037"/>
<path d="M1547 2073 c-13 -13 -20 -14 -29 -5 -9 9 -16 8 -31 -6 -16 -13 -21 -14 -25 -4 -3 10 -13 6 -33 -14 -16 -16 -29 -22 -29 -15 0 24 -29 -9 -56 -61 -30 -58 -31 -107 -4 -136 12 -12 25 -22 31 -22 5 0 36 18 68 40 60 41 229 125 237 118 2 -3 -15 -15 -39 -28 -122 -68 -227 -151 -227 -180 0 -20 47 -66 80 -78 14 -5 46 -12 72 -16 41 -6 47 -5 42 8 -5 13 1 16 30 16 24 0 36 5 36 14 0 8 15 19 33 25 21 8 28 14 20 19 -8 5 -1 14 23 27 23 12 31 21 22 26 -9 6 -4 14 16 30 17 14 24 24 17 29 -8 4 -5 13 9 25 25 22 26 35 3 35 -15 1 -14 4 6 21 20 16 22 22 11 29 -11 7 -12 14 -2 35 16 35 17 35 -24 35 -23 0 -33 4 -28 11 5 8 -6 10 -35 7 -29 -2 -41 0 -41 9 0 16 -2 16 -34 3 -21 -8 -26 -7 -26 6 0 11 -5 14 -17 9 -39 -16 -56 -18 -49 -7 11 18 -7 14 -27 -5z" id="svg_4" fill="#c20037"/>
<path d="M1180 1628 c-24 -13 -53 -35 -64 -50 -26 -37 -11 -70 46 -100 91 -47 259 -20 290 48 10 20 8 29 -8 52 -31 42 -99 72 -164 72 -38 0 -70 -7 -100 -22z" id="svg_5" fill="#c20037"/>
<path d="M902 1594 c-38 -19 -59 -38 -77 -69 -27 -45 -46 -145 -28 -145 38 0 263 191 263 224 0 27 -95 21 -158 -10z" id="svg_6" fill="#c20037"/>
<path d="M1500 1604 c0 -33 224 -224 263 -224 18 0 -1 100 -28 145 -33 57 -106 95 -182 95 -42 0 -53 -3 -53 -16z" id="svg_7" fill="#c20037"/>
<path d="M985 1426 c-145 -64 -169 -286 -39 -362 38 -22 54 -26 104 -22 47 3 68 10 97 34 115 91 110 284 -7 344 -45 23 -111 25 -155 6z" id="svg_8" fill="#c20037"/>
<path d="M1418 1420 c-116 -61 -118 -254 -5 -344 29 -24 50 -31 97 -34 78 -6 138 27 169 91 84 174 -97 373 -261 287z" id="svg_9" fill="#c20037"/>
<path d="M722 1288 c-40 -42 -62 -96 -62 -150 0 -48 27 -115 55 -138 15 -13 19 -12 36 9 28 34 50 121 52 199 2 117 -22 140 -81 80z" id="svg_10" fill="#c20037"/>
<path d="M1764 1298 c-23 -65 5 -240 45 -289 17 -21 21 -22 36 -9 28 23 55 90 55 138 0 54 -22 108 -62 150 -37 38 -64 41 -74 10z" id="svg_11" fill="#c20037"/>
<path d="M1194 1051 c-106 -48 -137 -182 -62 -267 43 -49 83 -67 148 -67 65 0 105 18 148 67 99 113 10 286 -148 286 -25 0 -64 -9 -86 -19z" id="svg_12" fill="#c20037"/>
<path d="M804 970 c-28 -11 -46 -67 -38 -117 16 -103 102 -192 192 -201 61 -5 92 19 92 71 0 90 -64 187 -152 231 -56 28 -62 29 -94 16z" id="svg_13" fill="#c20037"/>
<path d="M1662 954 c-62 -31 -115 -90 -136 -152 -22 -64 -20 -108 5 -133 31 -31 105 -22 162 18 101 73 140 253 60 284 -33 12 -32 12 -91 -17z" id="svg_14" fill="#c20037"/>
<path d="M1180 641 c-101 -33 -112 -64 -42 -118 95 -72 205 -68 301 13 43 36 40 59 -11 86 -33 17 -64 22 -133 25 -49 1 -101 -1 -115 -6z" id="svg_15" fill="#c20037"/>
</g></g></svg>